<?xml version="1.0" encoding="UTF-8"?><svg id="_レイヤー_2" xmlns="http://www.w3.org/2000/svg" xmlns:xlink="http://www.w3.org/1999/xlink" viewBox="0 0 449.1 192.99"><defs><style>.cls-1{fill:none;}.cls-1,.cls-2,.cls-3{stroke-width:0px;}.cls-4{clip-path:url(#clippath-1);}.cls-2{fill:#b91e29;}.cls-3{fill:#fff;}</style><clipPath id="clippath-1"><path class="cls-1" d="m208.93,118.51c-7.48,6.32-6.77,13.81-1.43,18.14,4.93,4,40.59,34.54,45.6,38.41,7.7,5.96,4.41,19.6-10.98,15.78-11.49-2.85-83.12-26.53-89.68-28.23-4.28-1.11-7.49-1.7-12.52,1-4.47,2.4-54.55,28.37-58.68,29.12-2.32.42-7.48.45-9.34-.93-2.79-2.06-3.06-5.84-1.88-9.33.78-2.3,19.89-56.81,21.53-62.29,2.19-7.32,2.36-9.6-3.2-15.53C85.91,102.07,10.58,22.67,6.88,18.89,1.92,13.82-1.45,7.2.62,3.45,2.02.92,6.56-1,13.27.56c7.11,1.65,45.65,24.08,78.96,43.47,22.32,12.99,43.97,25.35,45.96,26.47,7.62,4.31,10.81,5.04,16.85,3.92,6.12-1.14,37.16-7.44,40.54-8.02,4.01-.69,7.05.34,8.91,3.72,1.56,2.83,9.99,18.44,16.63,25.44l-12.18,22.95Z"/></clipPath></defs><g id="LOGO"><path class="cls-2" d="m434.83,107.1c.13-.16.24-.33.28-.44.09-.26.76-2.32.82-2.49.12-.31,0-.8-.34-.93-.17-.07-2.27-.59-2.56-.67-.29-.07-.73.75-.76,1-.02.17-.2,1.08-.32,1.72l-2.49-1.55c.16-.18.32-.36.41-.46.21-.24.46-2.15.49-2.34.03-.18-.02-.51-.22-.66-.46-.34-1.48-1.1-1.89-1.4-.52-.39-4.52-.53-4.81-.14-.27.36-.48.78-.54.9l-1-.62c.15-.13.29-.25.4-.35.28-.24.63-1.61.78-2.2.04-.17-.06-.38-.24-.53-.51-.41-1.52-1.22-1.92-1.52-.62-.46-3.77-.19-4.2.38-.11.15-.29.42-.47.69l-2.09-1.3.23-.31s.35-1.25.53-1.9c.18-.65-.03-1.25-.56-1.44-.37-.13-2.64-.81-3.03-.88-.51-.08-1.38,1.03-1.48,1.56-.01.08-.03.16-.05.25l-1.7-1.06c.45-1.21.61-2.64.37-2.95-.32-.41-1.8-1.57-2.62-1.9,0,0-2.95-.23-3.32-.25-.38-.02-.88.39-.98.81-.01.05-.03.12-.04.18l-2.23-1.39c.24-.82.49-1.71.53-1.92.16-.8-.28-1.42-.8-1.63s-1.6-.37-2-.42c-.52-.07-.91.32-1.02.74-.04.16-.13.58-.21,1.05l-1.69-1.05-3.23.82c-1.67,5.88-3.95,8.99-7.67,11.47l-163.36.13c-1.11-1.31-2.26-2.81-3.4-4.41h11.73c8.78,0,16.35-5.73,19.24-16.53l5.17-19.28c2.89-10.79-1.54-16.75-10.33-16.75h-14.81l-13.22,49.32c-4.58-6.91-8.68-14.48-9.72-16.36-1.86-3.38-4.9-4.41-8.91-3.72-3.38.58-34.41,6.88-40.54,8.02-6.04,1.13-9.24.4-16.85-3.92-1.27-.72-10.62-6.05-23.03-13.2,7.3-1.01,12.73-5.26,14.89-13.31l.96-3.57c1.34-4.99.08-7.82-2.68-9.45,3.47-1.56,6.08-4.91,7.3-9.45l.76-2.83c2.63-9.83-2.43-13.7-11.14-13.7h-13.77l-11.64,43.45c-2.5-1.45-5.04-2.93-7.59-4.41C58.92,24.64,20.37,2.21,13.27.56,6.56-1,2.02.92.62,3.45c-2.08,3.75,1.3,10.37,6.26,15.44,3.7,3.78,79.03,83.17,81.46,85.77,5.56,5.93,5.39,8.21,3.2,15.53-1.64,5.48-20.75,59.99-21.53,62.29-1.18,3.48-.9,7.26,1.88,9.33,1.86,1.38,7.02,1.35,9.34.93,4.13-.75,54.21-26.72,58.68-29.12,5.03-2.69,8.23-2.11,12.52-1,6.55,1.7,78.18,25.38,89.68,28.23,15.39,3.82,18.68-9.83,10.98-15.78-5-3.87-40.66-34.41-45.6-38.41-5.2-4.22-6-11.42.86-17.63l174.69-.64,1.01.72,2.32-.28c22.57,4.49,42.36,4.27,45.29,2.78l.87.14c.76-.08,16.57-5.76,16.57-5.76l-14.27-8.89Zm-199.13-59.14h2.31c2.9,0,4.96.67,3.52,6.03l-5.13,19.13c-1.44,5.36-4.05,5.96-6.73,5.96h-2.31l8.34-31.12ZM119.66,15.79h2.23c3.05,0,3.95.82,3.11,3.95l-.84,3.13c-.9,3.35-2.17,3.95-5.23,3.95h-2.23l2.95-11.02Zm-8.34,31.12l3.09-11.54h2.68c3.35,0,3.87,1.12,3.01,4.32l-.9,3.35c-.84,3.13-2.15,3.87-5.21,3.87h-2.68Z"/><path class="cls-2" d="m138.78,58.07c4.84,0,8.01-3.5,8.01-3.5l-.8,2.98h9.9l11.19-41.76h-9.9l-.8,2.98s-1.32-3.42-6.16-3.42c-5.66,0-10.42,3.05-12.89,12.28l-4.85,18.09c-2.47,9.23.63,12.36,6.29,12.36Zm4.47-12.8l4.59-17.12c.64-2.38,2.36-2.98,3.55-2.98,1.12,0,2.52.6,1.88,2.98l-4.59,17.12c-.64,2.38-2.34,2.9-3.46,2.9-1.19,0-2.62-.52-1.98-2.9Z"/><path class="cls-2" d="m169.59,57.55l7.86-29.33c.64-2.38,2.36-2.98,3.48-2.98,1.19,0,2.52.6,1.88,2.98l-7.86,29.33h10.65l8-29.85c2.47-9.23-.56-12.36-6.22-12.36-4.91,0-8.01,3.5-8.01,3.5l.82-3.05h-9.98l-11.19,41.76h10.57Z"/><path class="cls-2" d="m203.18,58.29c8.71,0,16.51-6.33,18.94-15.41l3.31-12.36h-14.74l-2.59,9.68h3.57l-.82,3.05c-1.02,3.8-3.22,4.24-4.78,4.24s-3.53-.45-2.51-4.24l6.42-23.97c1.02-3.8,3.07-4.24,4.78-4.24s3.53.45,2.51,4.24h11.17c2.15-8.86-2.22-15.04-10.79-15.04s-16.43,6.33-18.89,15.48l-6.2,23.15c-2.43,9.08,1.9,15.41,10.61,15.41Z"/><path class="cls-2" d="m256.36,89.72l6.64-24.79c1.5-5.58,4.58-7.37,9.58-6.85,0,0,2.91-10.57,2.83-10.57-6.55-.82-9.27,3.5-9.27,3.5l.82-3.05h-9.98l-11.19,41.76h10.57Z"/><path class="cls-2" d="m270.09,76.24c-2.33,8.71,1.07,14.07,9.56,14.07,9.08,0,14.63-5.14,16.5-12.13h-10.5l-.32,1.19c-.5,1.86-2.28,2.38-3.39,2.38-1.19,0-2.61-.52-2-2.83l1.72-6.4h16.01l3.01-11.24c2.25-8.41-1.26-13.92-9.52-13.92s-14.8,5.51-17.06,13.92l-4.01,14.96Zm15.16-17.12c.64-2.38,2.29-2.98,3.55-2.98,1.19,0,2.59.6,1.96,2.98l-1.66,6.18h-5.51l1.66-6.18Z"/><path class="cls-2" d="m305.43,90.24c4.84,0,8.01-3.5,8.01-3.5l-.8,2.98h9.9l11.19-41.76h-9.9l-.8,2.98s-1.32-3.42-6.15-3.42c-5.66,0-10.42,3.05-12.89,12.28l-4.85,18.09c-2.47,9.23.63,12.36,6.29,12.36Zm4.47-12.8l4.59-17.12c.64-2.38,2.36-2.98,3.55-2.98,1.12,0,2.52.6,1.88,2.98l-4.59,17.12c-.64,2.38-2.34,2.9-3.46,2.9-1.19,0-2.62-.52-1.98-2.9Z"/><path class="cls-2" d="m336.24,89.72l7.86-29.33c.64-2.38,2.06-2.98,3.18-2.98,1.27,0,2.37.6,1.73,2.98l-7.86,29.33h10.57l7.86-29.33c.62-2.31,2.14-2.98,3.25-2.98,1.19,0,2.3.6,1.66,2.98l-7.86,29.33h10.65l8-29.85c2.47-9.23-.41-12.36-5.99-12.36-4.69,0-7.76,2.83-9.08,4.17-.86-2.9-3.28-4.17-6.7-4.17-4.84,0-7.49,3.5-7.49,3.5l.82-3.05h-9.98l-11.19,41.76h10.57Z"/><path class="cls-2" d="m372.66,84.06c-.94,3.5,1.17,6.18,4.6,6.18s7.05-2.68,7.98-6.18c.94-3.5-1.13-6.33-4.63-6.33s-7.01,2.83-7.95,6.33Z"/><path class="cls-2" d="m395.84,44.24c1.06-3.94.15-7.52-4.24-7.52s-7.21,3.57-8.27,7.52c-1.26,4.69-1.52,15.41-2.85,29.25h2.61c6.02-13.84,11.5-24.56,12.75-29.25Z"/><path class="cls-3" d="m216.37,112.9l-1.57,3.18h-4.75l9.96-18.85h5.07l-.22,18.85h-4.75l.13-3.18h-3.87Zm4.06-4.08l.44-5.31-2.49,5.31h2.06Z"/><path class="cls-3" d="m234.66,116.08l-1.15-8.57-2.3,8.57h-4.75l5.05-18.85h4.49l1.13,8.62,2.31-8.62h4.75l-5.05,18.85h-4.49Z"/><path class="cls-3" d="m249.77,116.08l-1.15-8.57-2.3,8.57h-4.75l5.05-18.85h4.49l1.13,8.62,2.31-8.62h4.75l-5.05,18.85h-4.49Z"/><path class="cls-3" d="m256.95,116.08l5.05-18.85h4.73l-5.05,18.85h-4.73Z"/><path class="cls-3" d="m273.34,97.23l-1.02,11.59,5.16-11.59h4.75l-9.35,18.85h-5.05l.75-18.85h4.75Z"/><path class="cls-3" d="m287.68,101.8l-.77,2.88h4.46l-1.1,4.11h-4.46l-.74,2.75h5.87l-1.22,4.54h-10.6l5.05-18.85h10.6l-1.22,4.56h-5.87Z"/><path class="cls-3" d="m297.18,97.23h6.22c3.71,0,5.63,2.51,4.41,7.07l-.14.51c-.73,2.72-2.16,4.67-4.02,5.82l.84,5.45h-5.15l-.29-4.3h-1.01l-1.15,4.3h-4.75l5.05-18.85Zm2.06,10.06h.88c.93,0,2.26-.27,2.87-2.54l.11-.43c.61-2.27-.49-2.56-1.5-2.56h-.88l-1.48,5.53Z"/><path class="cls-3" d="m322.08,103.13h-4.67c.39-1.44-.32-1.79-1.02-1.79-.75,0-1.63.32-1.89,1.28-.76,2.83,7.63,1.31,5.88,7.85-.97,3.6-4.26,5.93-8.02,5.93s-5.76-2.62-4.73-6.46h4.73c-.42,1.55.46,1.87,1.23,1.87.72,0,1.74-.21,2.04-1.33.7-2.62-7.54-1.47-5.83-7.85.94-3.5,4.1-5.74,7.79-5.74s5.48,2.56,4.49,6.25Z"/><path class="cls-3" d="m325.84,112.9l-1.57,3.18h-4.75l9.96-18.85h5.07l-.22,18.85h-4.75l.13-3.18h-3.87Zm4.06-4.08l.44-5.31-2.49,5.31h2.06Z"/><path class="cls-3" d="m340.99,97.23h6.22c3.71,0,5.63,2.51,4.41,7.07l-.14.51c-.73,2.72-2.16,4.67-4.02,5.82l.84,5.45h-5.15l-.29-4.3h-1.01l-1.15,4.3h-4.75l5.05-18.85Zm2.06,10.06h.88c.93,0,2.26-.27,2.87-2.54l.11-.43c.61-2.27-.49-2.56-1.5-2.56h-.88l-1.48,5.53Z"/><path class="cls-3" d="m353.37,97.23h4.89l.38,6.97,4.16-6.97h4.83l-8.04,12.28-1.76,6.57h-4.75l1.76-6.57-1.46-12.28Z"/><path class="cls-2" d="m220.79,126.47h-1.26c.16-.61-.12-.78-.6-.78-.44,0-.74.19-.83.53-.27,1.02,2.69.48,2.18,2.38-.28,1.06-1.18,1.66-2.52,1.66s-1.94-.72-1.62-1.94h1.29c-.16.6.13.86.62.86s.85-.27.94-.59c.26-.96-2.67-.44-2.15-2.37.27-1,1.17-1.62,2.38-1.62,1.34,0,1.91.62,1.57,1.87Z"/><path class="cls-2" d="m220.76,130.14l1.47-5.48h1.28l-1.47,5.48h-1.28Zm2.29-6.14c-.43,0-.69-.34-.57-.77.11-.43.56-.78.99-.78s.69.35.57.78c-.11.43-.55.77-.99.77Z"/><path class="cls-2" d="m223.17,130.14l1.47-5.48h1.2l-.17.62c.12-.18.69-.68,1.49-.68.99,0,1.48.61,1.11,2.01l-.95,3.53h-1.3l.92-3.43c.18-.67-.03-.96-.53-.96-.53,0-.87.28-1.05.99l-.91,3.41h-1.28Z"/><path class="cls-2" d="m230.2,130.24c-1.33,0-1.86-.83-1.51-2.14l.35-1.33c.36-1.34,1.34-2.18,2.67-2.18s1.85.83,1.46,2.25h-1.29c.21-.77,0-1.09-.49-1.09s-.87.25-1.05.95l-.34,1.29c-.19.72-.03,1.1.5,1.1.46,0,.87-.33,1.07-1.07h1.29c-.37,1.38-1.31,2.22-2.66,2.22Z"/><path class="cls-2" d="m237.63,128.43c-.27,1-1.26,1.81-2.55,1.81s-1.86-.83-1.51-2.14l.36-1.34c.36-1.34,1.34-2.17,2.67-2.17s1.86.77,1.5,2.12l-.29,1.07h-2.87l-.16.59c-.13.49.17.82.58.82s.85-.24.97-.69l.03-.12h1.29v.04Zm-.87-1.54l.07-.26c.2-.73-.04-.97-.52-.97s-.87.25-1.02.84l-.11.4h1.58Z"/><path class="cls-2" d="m240.01,130.14l.28-1.03c.66-2.48,3.79-2.15,4.23-3.79.16-.59-.22-.91-.7-.91-.53,0-1.04.36-1.22,1.02h-1.33c.37-1.38,1.56-2.29,2.88-2.29s2.05.88,1.7,2.16c-.63,2.35-3.76,2.26-4.14,3.55h3.1l-.34,1.29h-4.46Z"/><path class="cls-2" d="m245.82,128.3c.2-.74.7-1.28,1.38-1.53-.48-.29-.65-.79-.43-1.59.32-1.19,1.43-1.91,2.75-1.91s2.05.72,1.73,1.92c-.21.79-.65,1.31-1.27,1.58.57.25.75.8.56,1.53-.32,1.21-1.52,1.96-2.88,1.96s-2.16-.75-1.83-1.96Zm1.42-.14c-.19.7.22.88.74.88.49,0,1.03-.18,1.23-.92.17-.63-.12-.87-.62-.87h-.31c-.47,0-.87.25-1.04.91Zm.8-2.81c-.19.72.17.87.69.87s.98-.17,1.16-.85c.19-.7-.19-.89-.7-.89s-.98.19-1.16.87Z"/><path class="cls-2" d="m256.02,124.57l-.42,1.56h1.73l-.31,1.17h-1.73l-.76,2.83h-1.35l1.84-6.85h3.7l-.35,1.3h-2.36Z"/><path class="cls-2" d="m262.21,128.43c-.27,1-1.26,1.81-2.55,1.81s-1.86-.83-1.51-2.14l.36-1.34c.36-1.34,1.34-2.17,2.67-2.17s1.86.77,1.5,2.12l-.29,1.07h-2.87l-.16.59c-.13.49.17.82.58.82s.85-.24.97-.69l.03-.12h1.29v.04Zm-.87-1.54l.07-.26c.2-.73-.04-.97-.52-.97s-.87.25-1.02.84l-.11.4h1.58Z"/><path class="cls-2" d="m263.98,129.55l-.16.59h-1.2l1.97-7.36h1.28l-.64,2.38s.52-.56,1.38-.56c.99,0,1.48.61,1.11,2.01l-.43,1.6c-.38,1.4-1.19,2.02-2.19,2.02-.8,0-1.1-.5-1.12-.68Zm2.04-1.43l.37-1.39c.18-.66-.05-.97-.53-.97s-.87.29-1.04.94l-.38,1.42c-.18.67.06.98.53.98s.87-.31,1.05-.98Z"/><path class="cls-2" d="m269.78,127.13l-.81,3.01h-1.28l1.47-5.48h1.2l-.2.74c.32-.6,1.06-.88,1.67-.8l-.34,1.26c-.96-.08-1.48.39-1.71,1.27Z"/><path class="cls-2" d="m276.74,124.66l-.93,3.46c-.35,1.3-1.38,2.12-2.64,2.12s-1.87-.82-1.52-2.12l.93-3.46h1.29l-.98,3.65c-.15.57.22.79.59.79.31,0,.84-.21.99-.79l.98-3.65h1.3Z"/><path class="cls-2" d="m276.61,128.2l.43-1.59c.38-1.41,1.21-2.02,2.18-2.02.81,0,1.09.51,1.12.68l.16-.61h1.21l-1.47,5.48h-1.21l.16-.6c-.13.18-.68.69-1.49.69-.99,0-1.47-.62-1.09-2.03Zm2.89-.1l.38-1.41c.18-.66-.07-.96-.52-.96-.48,0-.87.3-1.05.97l-.37,1.39c-.18.68.05.99.53.99s.86-.31,1.04-.99Z"/><path class="cls-2" d="m283.4,127.13l-.81,3.01h-1.28l1.47-5.48h1.2l-.2.74c.32-.6,1.06-.88,1.67-.8l-.34,1.26c-.96-.08-1.48.39-1.71,1.27Z"/><path class="cls-2" d="m285.81,124.66h1.37v3.65s1.95-3.65,1.95-3.65h1.37l-4.26,7.35h-1.31l1.1-1.88-.23-5.47Z"/><path class="cls-2" d="m291.57,130.14l.28-1.03c.66-2.48,3.8-2.15,4.23-3.79.16-.59-.22-.91-.7-.91-.53,0-1.04.36-1.22,1.02h-1.33c.37-1.38,1.56-2.29,2.88-2.29s2.05.88,1.7,2.16c-.63,2.35-3.76,2.26-4.14,3.55h3.1l-.34,1.29h-4.46Z"/><path class="cls-2" d="m297.59,127.87l.63-2.34c.38-1.4,1.59-2.39,2.95-2.39s2.05.99,1.67,2.39l-.63,2.34c-.37,1.39-1.59,2.37-2.95,2.37s-2.05-.97-1.68-2.37Zm3.29-.06l.6-2.22c.24-.88-.14-1.15-.66-1.15s-1.03.27-1.26,1.15l-.59,2.21c-.23.88.13,1.15.65,1.15s1.04-.27,1.27-1.14Z"/><path class="cls-2" d="m305.13,123.27h1.25l-1.84,6.87h-1.35l1.34-5.01c-.25.08-.51.1-.83.1l.35-1.3c.73,0,.95-.15,1.08-.66Z"/><path class="cls-2" d="m308.22,128.94c.54,0,1.06-.45,1.21-1.03l.08-.28c.14-.53-.1-.96-.72-.96-.55,0-.84.31-1.05.56l-1.21-.28,1.64-3.68h3.51l-.34,1.29h-2.42s-.42.91-.62,1.36c.14-.13.59-.36,1.14-.36,1.16,0,1.79.67,1.41,2.08l-.08.3c-.37,1.39-1.57,2.32-2.93,2.32s-2.05-.98-1.68-2.37h1.35c-.21.8.13,1.06.71,1.06Z"/><polygon class="cls-3" points="23.96 14.82 26.19 12.33 26.03 15.63 28.89 17.34 25.92 18.12 25.43 21.5 23.64 18.64 20.32 19.3 22.22 16.73 20.76 13.61 23.96 14.82"/><polygon class="cls-3" points="198.23 73.74 200.01 71.16 200.25 74.2 203.17 75.51 200.4 76.53 200.23 79.85 198.33 77.33 195.38 78.2 197.08 75.69 195.2 72.83 198.23 73.74"/><polygon class="cls-3" points="86.98 178.69 90.18 178.07 88.24 180.69 89.68 183.82 86.64 182.37 84.4 184.9 84.57 181.74 81.57 179.98 84.8 179.24 85.16 175.7 86.98 178.69"/><polygon class="cls-3" points="235.03 171.47 238.71 168.32 237.62 173.39 241.47 176.24 236.97 176.68 235.52 181.64 233.65 177.08 228.75 177.27 232.46 173.82 230.93 168.8 235.03 171.47"/><polygon class="cls-3" points="228.59 165.2 231.65 165.36 229.35 167.39 230.03 170.39 227.69 168.66 225.06 170.72 225.94 167.49 223.58 165.54 226.61 165.24 227.44 162.24 228.59 165.2"/><g class="cls-4"><path class="cls-3" d="m169.01,113.12h7.16l-1.87,6.98h5.06l-2.38,8.87h-5.06l-5.13,19.13c-.62,2.3.51,3.21,4.37,2.58l-2.39,8.94c-11.79,1.12-14.29-3.84-11.94-12.64l4.83-18.01h-3.18l2.23-8.31c4.99,0,6.79-1.88,8.31-7.54Z"/><path class="cls-3" d="m172.55,159.27l14.18-52.92h10.26l-4.43,16.55c1.53-1.68,4.35-3.28,7.53-3.28,5.21,0,8.27,2.3,5.79,11.59l-7.52,28.07h-10.34l7.39-27.58c.6-2.23-.7-2.79-1.85-2.79-1.08,0-2.75.56-3.35,2.79l-7.39,27.58h-10.26Z"/><path class="cls-3" d="m92.27,175.35l24.28-31.52c-21.81,0-30.75-11.8-24.99-33.31l1.6-5.98c5.72-21.36,24.37-36.3,45.13-36.3s31.25,14.94,25.53,36.3l-1.48,5.53c-3.08,11.5-9.59,22.41-16.24,31.07l-25.6,34.21h-28.24Zm43.13-63.94l2.08-7.77c2.4-8.96-2.25-10.01-5.98-10.01s-9.09,1.05-11.5,10.01l-2.08,7.77c-2.44,9.11,1.91,10.16,6.09,10.16s8.94-1.05,11.39-10.16Z"/></g></g></svg>